# File created by Blade
# Date/Time:  Tue Apr 07 21:25:57 2015
# Frame Rate: 120.000 fps
#------------------------------------------------------
:FULLY-SPECIFIED
:DEGREES
384
root 21.604808 32.495864 5.317304 22.468520 -87.265008 2.751931
Spine -1.899109 -5.800640 -0.959567
Head 0.332628 -0.495317 4.356967
LeftShoulder 2.314222 27.792626 25.393155
LeftArm 83.816932 10.636609 -62.506584
LeftForeArm -9.849444 -0.000000 19.813206
LeftHand 6.058074 -0.000000 -11.708993
LeftHandThumb1 -26.253704 0.000000 33.147579
RightShoulder 6.964464 12.089662 -21.251792
RightArm 45.054137 -27.082889 73.267788
RightForeArm -9.367953 -0.000000 24.712325
RightHand 5.347934 -0.000000 10.706497
RightHandThumb1 -24.326973 -0.000000 -32.862282
LeftUpLeg -34.407985 -2.905689 -0.302985
LeftLeg 10.193730 -0.000000 -0.000000
LeftFoot -3.965392 9.018256 -13.168239
LeftToeBase -9.951044 -0.000000 0.000000
RightUpLeg -46.024800 6.552209 -2.094658
RightLeg 30.853670 -0.000000 -0.000000
RightFoot -9.760895 -7.594798 13.545725
RightToeBase -7.676648 -0.000000 0.000000
385
root 21.634352 32.522634 5.345195 24.515122 -87.207238 0.969277
Spine -1.994359 -5.844167 -0.797081
Head 0.195426 -0.476769 4.236819
LeftShoulder 2.366067 27.571912 25.472674
LeftArm 83.856706 10.186660 -63.259550
LeftForeArm -10.773899 -0.000000 20.177716
LeftHand 6.093588 -0.000000 -11.829434
LeftHandThumb1 -26.253704 0.000000 33.147579
RightShoulder 6.970431 12.386322 -21.449494
RightArm 45.155734 -26.591352 73.319485
RightForeArm -8.604250 -0.000000 25.172474
RightHand 5.242690 -0.000000 10.905075
RightHandThumb1 -24.326973 -0.000000 -32.862282
LeftUpLeg -34.450270 -2.739975 -0.325081
LeftLeg 9.613138 -0.000000 -0.000000
LeftFoot -3.468294 8.810180 -13.196443
LeftToeBase -10.020348 -0.000000 0.000000
RightUpLeg -46.174681 6.522997 -1.912382
RightLeg 30.410815 -0.000000 -0.000000
RightFoot -8.933776 -7.382527 13.469980
RightToeBase -7.950295 -0.000000 0.000000
386
root 21.644298 32.549830 5.363392 25.941474 -87.333003 -0.371420
Spine -1.919591 -5.727624 -0.837061
Head 0.107095 -0.452443 4.264480
LeftShoulder 2.392469 27.451260 25.582211
LeftArm 84.051672 9.676158 -63.708119
LeftForeArm -11.799507 -0.000000 20.529536
LeftHand 6.199265 0.000000 -12.033105
LeftHandThumb1 -26.253704 0.000000 33.147579
RightShoulder 7.005422 12.689038 -21.521453
RightArm 45.207830 -26.055641 73.420434
RightForeArm -7.813209 -0.000000 25.605344
RightHand 5.309775 -0.000000 10.961486
RightHandThumb1 -24.326973 -0.000000 -32.862282
LeftUpLeg -34.189426 -2.410213 -0.429468
LeftLeg 8.876864 -0.000000 -0.000000
LeftFoot -2.976920 8.583763 -13.260228
LeftToeBase -10.051503 -0.000000 0.000000
RightUpLeg -46.054859 6.723715 -1.820947
RightLeg 29.818099 -0.000000 -0.000000
RightFoot -8.068156 -7.480687 13.366800
RightToeBase -7.778263 -0.000000 0.000000
387
root 21.641849 32.576051 5.385588 26.625697 -87.482695 -1.040994
Spine -1.794131 -5.609108 -0.912807
Head 0.064783 -0.432669 4.271117
LeftShoulder 2.436320 27.238512 25.670101
LeftArm 84.139134 9.204572 -64.180705
LeftForeArm -12.845716 0.000000 20.885448
LeftHand 6.276702 -0.000000 -12.420858
LeftHandThumb1 -26.253704 0.000000 33.147579
RightShoulder 7.033590 12.917470 -21.599013
RightArm 45.350291 -25.503917 73.469006
RightForeArm -6.739799 0.000000 26.036478
RightHand 5.313965 -0.000000 10.958008
RightHandThumb1 -24.326973 -0.000000 -32.862282
LeftUpLeg -33.815192 -2.087200 -0.583681
LeftLeg 8.103273 -0.000000 -0.000000
LeftFoot -2.497776 8.384654 -13.342468
LeftToeBase -10.104269 -0.000000 0.000000
RightUpLeg -45.772260 6.877377 -1.720572
RightLeg 29.095401 -0.000000 -0.000000
RightFoot -7.064634 -7.830047 13.162472
RightToeBase -8.055411 -0.000000 0.000000
